<svg width="49" height="48" viewBox="0 0 49 48" fill="none" xmlns="http://www.w3.org/2000/svg">
<g clip-path="url(#clip0)" filter="url(#filter0_d)">
<rect x="4.97119" width="40" height="40" rx="20" fill="#2893B7"/>
<path fill-rule="evenodd" clip-rule="evenodd" d="M36.4503 20L24.9711 8.66669L13.4919 20L24.9711 31.3334L36.4503 20ZM34.6378 19.9999L24.9711 10.456L15.3044 19.9999L24.9711 29.5438L34.6378 19.9999Z" fill="white"/>
<path fill-rule="evenodd" clip-rule="evenodd" d="M24.9712 19.9999L15.3045 10.4561L5.63782 19.9999L15.3045 29.5438L24.9712 19.9999ZM23.1586 19.9998L15.3045 12.2454L7.45032 19.9998L15.3045 27.7542L23.1586 19.9998Z" fill="white"/>
<path fill-rule="evenodd" clip-rule="evenodd" d="M44.3045 19.9999L34.6379 10.4561L24.9712 19.9999L34.6379 29.5438L44.3045 19.9999ZM42.492 19.9998L34.6379 12.2454L26.7837 19.9998L34.6379 27.7542L42.492 19.9998Z" fill="white"/>
</g>
<defs>
<filter id="filter0_d" x="0.971191" y="0" width="48" height="48" filterUnits="userSpaceOnUse" color-interpolation-filters="sRGB">
<feFlood flood-opacity="0" result="BackgroundImageFix"/>
<feColorMatrix in="SourceAlpha" type="matrix" values="0 0 0 0 0 0 0 0 0 0 0 0 0 0 0 0 0 0 127 0" result="hardAlpha"/>
<feOffset dy="4"/>
<feGaussianBlur stdDeviation="2"/>
<feComposite in2="hardAlpha" operator="out"/>
<feColorMatrix type="matrix" values="0 0 0 0 0 0 0 0 0 0 0 0 0 0 0 0 0 0 0.25 0"/>
<feBlend mode="normal" in2="BackgroundImageFix" result="effect1_dropShadow"/>
<feBlend mode="normal" in="SourceGraphic" in2="effect1_dropShadow" result="shape"/>
</filter>
<clipPath id="clip0">
<rect width="40" height="40" fill="white" transform="translate(4.97119)"/>
</clipPath>
</defs>
</svg>
